<?xml version="1.0" standalone="no"?>
<!DOCTYPE svg PUBLIC "-//W3C//DTD SVG 20010904//EN"
 "http://www.w3.org/TR/2001/REC-SVG-20010904/DTD/svg10.dtd">
<svg version="1.0" xmlns="http://www.w3.org/2000/svg"
 width="300.000000pt" height="300.000000pt" viewBox="0 0 300.000000 300.000000"
 preserveAspectRatio="xMidYMid meet">
<metadata>
Created by potrace 1.11, written by Peter Selinger 2001-2013
</metadata>
<g transform="translate(0.000000,300.000000) scale(0.100000,-0.100000)"
fill="#000000" stroke="none">
<path d="M0 1500 l0 -1500 1500 0 1500 0 0 1500 0 1500 -1500 0 -1500 0 0
-1500z m2426 1091 c38 -23 343 -351 366 -394 9 -18 17 -50 17 -72 0 -56 -14
-78 -183 -283 -126 -154 -156 -184 -192 -198 -80 -31 -167 4 -205 82 -27 57
-22 108 20 175 l30 48 -32 -5 c-211 -37 -347 -125 -498 -324 l-26 -35 -97 149
-97 148 47 51 c125 138 262 236 407 291 69 26 202 56 248 56 16 0 29 3 29 6 0
3 -14 23 -31 44 -33 40 -47 105 -35 154 8 32 52 84 91 107 39 24 102 24 141 0z
m-1664 -245 c293 -75 536 -269 755 -601 36 -55 99 -149 139 -210 202 -306 343
-416 591 -459 l32 -5 -30 48 c-42 67 -47 118 -20 175 38 78 125 113 205 82 36
-14 66 -44 192 -198 169 -205 183 -227 183 -283 0 -22 -8 -54 -17 -72 -23 -43
-328 -371 -366 -394 -59 -36 -132 -21 -188 38 -60 63 -64 137 -13 213 19 29
35 54 35 56 0 2 -13 4 -29 4 -46 0 -179 30 -248 56 -171 65 -327 187 -474 372
-32 40 -134 186 -225 325 -137 206 -184 269 -258 343 -148 148 -280 199 -548
212 -137 7 -149 10 -174 32 -84 78 -65 226 36 278 43 22 53 23 185 19 104 -4
165 -12 237 -31z m-253 -576 c21 -10 51 -34 66 -51 28 -34 29 -34 55 13 15 25
92 58 138 58 100 0 182 -76 182 -168 0 -50 -45 -141 -105 -211 -41 -48 -232
-220 -245 -221 -14 0 -230 203 -267 251 -84 110 -105 210 -56 277 47 65 158
90 232 52z m857 -698 c-115 -140 -247 -246 -403 -323 -143 -70 -263 -99 -438
-106 -132 -4 -142 -3 -185 19 -101 52 -120 200 -36 278 25 22 37 25 174 32
267 14 401 65 543 207 47 47 111 123 143 169 l58 82 99 -146 100 -146 -55 -66z"/>
</g>
</svg>
